<svg width="214" height="54" viewBox="0 0 214 54" fill="none" xmlns="http://www.w3.org/2000/svg">
  <title>Leticia Olazar Estudio Juridico</title>
  <rect x="1" y="1" width="52" height="52" rx="26" stroke="currentColor" stroke-width="2"/>
  <path d="M19 14V37H33" stroke="currentColor" stroke-width="2.4" stroke-linecap="square" stroke-linejoin="round"/>
  <path d="M35.5 14C41.3 14 45 18.6 45 25.5C45 32.4 41.3 37 35.5 37C29.7 37 26 32.4 26 25.5C26 18.6 29.7 14 35.5 14Z" stroke="currentColor" stroke-width="2.4"/>
  <path d="M69 15.5H72.1V35.4H82.7V38H69V15.5Z" fill="currentColor"/>
  <path d="M86.2 15.5H100.1V18H89.3V24.9H99.1V27.4H89.3V35.5H100.4V38H86.2V15.5Z" fill="currentColor"/>
  <path d="M103 15.5H120.4V18.1H113.3V38H110.1V18.1H103V15.5Z" fill="currentColor"/>
  <path d="M123.8 15.5H126.9V38H123.8V15.5Z" fill="currentColor"/>
  <path d="M142.6 38.4C135.9 38.4 131.1 33.6 131.1 26.8C131.1 20 136 15.1 142.7 15.1C146.2 15.1 149 16.4 151.1 18.8L149.1 20.8C147.4 18.9 145.3 17.9 142.8 17.9C137.9 17.9 134.4 21.6 134.4 26.8C134.4 32 137.9 35.7 142.8 35.7C145.5 35.7 147.6 34.7 149.4 32.6L151.4 34.5C149.3 37.1 146.4 38.4 142.6 38.4Z" fill="currentColor"/>
  <path d="M155.5 15.5H158.6V38H155.5V15.5Z" fill="currentColor"/>
  <path d="M173.1 15.5H176.1L185.5 38H182.2L179.9 32.3H169.1L166.8 38H163.5L173.1 15.5ZM170.1 29.8H178.9L174.5 18.9L170.1 29.8Z" fill="currentColor"/>
  <path d="M69 47.2H145" stroke="currentColor" stroke-width="1" stroke-linecap="square" opacity=".36"/>
  <path d="M153 44.5H156.8V45.2H153.8V46.8H156.6V47.5H153.8V49.3H156.9V50H153V44.5Z" fill="currentColor"/>
  <path d="M160.3 50.1C159.4 50.1 158.7 49.8 158.2 49.3L158.7 48.7C159.2 49.2 159.7 49.4 160.4 49.4C161.1 49.4 161.5 49.1 161.5 48.6C161.5 48.1 161.2 47.9 160.2 47.7C159 47.4 158.4 47 158.4 46.1C158.4 45.1 159.2 44.4 160.3 44.4C161.1 44.4 161.7 44.6 162.2 45.1L161.8 45.7C161.3 45.3 160.8 45.1 160.3 45.1C159.7 45.1 159.2 45.4 159.2 45.9C159.2 46.4 159.5 46.6 160.6 46.9C161.8 47.1 162.3 47.6 162.3 48.5C162.3 49.5 161.5 50.1 160.3 50.1Z" fill="currentColor"/>
  <path d="M165.1 45.2H163.3V44.5H167.7V45.2H165.9V50H165.1V45.2Z" fill="currentColor"/>
  <path d="M171.3 50.1C169.9 50.1 169 49.2 169 47.7V44.5H169.8V47.7C169.8 48.8 170.4 49.4 171.3 49.4C172.2 49.4 172.8 48.8 172.8 47.7V44.5H173.6V47.7C173.6 49.2 172.7 50.1 171.3 50.1Z" fill="currentColor"/>
  <path d="M175.5 44.5H177.5C179.3 44.5 180.5 45.7 180.5 47.3C180.5 48.9 179.3 50 177.5 50H175.5V44.5ZM177.5 49.3C178.8 49.3 179.7 48.5 179.7 47.3C179.7 46.1 178.8 45.2 177.5 45.2H176.3V49.3H177.5Z" fill="currentColor"/>
  <path d="M182.3 44.5H183.1V50H182.3V44.5Z" fill="currentColor"/>
  <path d="M187.8 50.1C186.1 50.1 184.9 48.8 184.9 47.3C184.9 45.7 186.1 44.4 187.8 44.4C189.5 44.4 190.7 45.7 190.7 47.3C190.7 48.8 189.5 50.1 187.8 50.1ZM187.8 49.4C189 49.4 189.9 48.5 189.9 47.3C189.9 46 189 45.1 187.8 45.1C186.6 45.1 185.7 46 185.7 47.3C185.7 48.5 186.6 49.4 187.8 49.4Z" fill="currentColor"/>
  <path d="M192.5 44.5H193.3V47.3L196 44.5H197L194.7 46.9L197.1 50H196.1L194.1 47.5L193.3 48.4V50H192.5V44.5Z" fill="currentColor"/>
  <path d="M198.5 44.5H199.3V50H198.5V44.5Z" fill="currentColor"/>
  <path d="M201.4 44.5H205.2V45.2H202.2V46.8H205V47.5H202.2V49.3H205.3V50H201.4V44.5Z" fill="currentColor"/>
  <path d="M207.1 44.5H209.5C210.2 44.5 210.8 44.7 211.1 45.1C211.4 45.4 211.6 45.8 211.6 46.3C211.6 47.2 211.1 47.8 210.2 48L211.8 50H210.9L209.4 48.1H207.9V50H207.1V44.5ZM209.4 47.4C210.2 47.4 210.8 47 210.8 46.3C210.8 45.6 210.3 45.2 209.5 45.2H207.9V47.4H209.4Z" fill="currentColor"/>
</svg>
